<svg width="137" height="26" viewBox="0 0 137 26" fill="none" xmlns="http://www.w3.org/2000/svg">
    <path fill-rule="evenodd" clip-rule="evenodd" d="M25.0593 6.3472C25.1479 6.37488 25.229 6.42195 25.2971 6.48499C25.3652 6.54803 25.4189 6.62544 25.4534 6.71163C25.4878 6.79781 25.5027 6.8906 25.4968 6.98323C25.4909 7.07587 25.4642 7.16605 25.4192 7.2472C25.2992 7.4802 25.1691 7.70719 25.0491 7.93419C25.0476 8.01371 25.0268 8.09169 24.9885 8.16138C24.9502 8.23107 24.8957 8.29039 24.8293 8.3342C23.725 10.3414 22.4432 12.2456 20.9992 14.0242C20.9944 14.0257 20.9901 14.0285 20.9866 14.0321C20.9831 14.0358 20.9805 14.0403 20.9792 14.0452C22.6492 15.2282 26.6392 18.2452 24.6892 19.9452C23.6692 20.8382 20.7091 20.6882 19.5691 20.1822C18.9084 19.843 18.2934 19.4213 17.739 18.9272C16.759 18.1372 16.4891 18.1832 15.6091 19.0272C14.4791 20.1122 13.8494 20.7992 12.1794 20.6022C10.1849 20.2544 8.32981 19.3484 6.82933 17.9892C3.4438 15.0409 1.05985 11.1118 0.00901499 6.7472C-0.00445804 6.67932 -0.00269686 6.60933 0.0134095 6.54203C0.0295159 6.47472 0.0600229 6.4117 0.102765 6.35727C0.145507 6.30285 0.199402 6.25832 0.260968 6.22672C0.322534 6.19512 0.390073 6.1772 0.45921 6.1742C0.47921 6.1742 0.479249 6.1642 0.499249 6.1592C2.07974 5.87542 3.69259 5.81784 5.28929 5.98819C5.41579 6.00392 5.53429 6.05801 5.62913 6.14319C5.67589 6.16198 5.71727 6.19224 5.74925 6.23119C6.97925 7.71319 7.51905 9.67019 8.79905 11.1112C9.41905 11.8112 9.61942 11.6952 9.67943 10.7342C9.70775 10.3218 9.71086 9.90802 9.68919 9.4952C9.62919 8.4162 9.24909 7.4712 9.08909 6.4222C9.05895 6.28485 9.08441 6.14114 9.15941 6.02219C9.17637 5.90355 9.23091 5.79362 9.31566 5.70888C9.4004 5.62414 9.5105 5.56915 9.62913 5.55219C11.1537 5.45341 12.6825 5.43272 14.2092 5.49019C14.3038 5.46095 14.4052 5.46264 14.4988 5.49501C14.5923 5.52739 14.673 5.58876 14.7292 5.6702C14.7864 5.68684 14.8381 5.7187 14.8786 5.76238C14.9192 5.80605 14.9469 5.85991 14.9592 5.9182C15.1391 6.86052 15.1998 7.82175 15.1394 8.77919C15.1294 9.23919 15.1191 9.7032 15.1091 10.1632C15.0991 10.4262 15.0993 10.6902 15.0993 10.9532C14.9993 11.4392 15.1894 11.6242 15.6594 11.5112C16.4494 11.5982 16.6591 10.9272 17.0491 10.3112C17.2791 9.94519 17.4992 9.56819 17.7092 9.18619C18.2092 8.28619 18.569 7.34319 19.029 6.42819C19.0619 6.35505 19.1135 6.2918 19.1784 6.24477C19.2434 6.19774 19.3194 6.16857 19.3992 6.16019C19.4453 6.13416 19.4963 6.11815 19.5491 6.11319C21.3886 5.97596 23.2381 6.05451 25.0593 6.3472Z" fill="#5476A4"/>
    <path fill-rule="evenodd" clip-rule="evenodd" d="M134.379 0H113.989C113.313 0.00237184 112.666 0.271792 112.188 0.749496C111.711 1.2272 111.441 1.87442 111.439 2.54999V22.947C111.441 23.6226 111.711 24.2698 112.188 24.7475C112.666 25.2252 113.313 25.4946 113.989 25.497H134.379C135.055 25.4962 135.703 25.2273 136.181 24.7492C136.659 24.2712 136.928 23.623 136.929 22.947V2.547C136.928 1.87138 136.659 1.22385 136.181 0.746399C135.703 0.268944 135.055 0.000528187 134.379 0ZM124.189 7.64799C125.198 7.64799 126.184 7.9471 127.022 8.50749C127.861 9.06789 128.515 9.86441 128.901 10.7963C129.287 11.7282 129.388 12.7536 129.191 13.743C128.994 14.7323 128.509 15.641 127.795 16.3542C127.082 17.0675 126.173 17.5532 125.184 17.75C124.195 17.9468 123.169 17.8458 122.237 17.4598C121.305 17.0738 120.509 16.4201 119.949 15.5814C119.388 14.7427 119.089 13.7567 119.089 12.748C119.091 11.396 119.629 10.0999 120.585 9.14374C121.541 8.1876 122.837 7.64937 124.189 7.64699V7.64799ZM114.629 22.948C114.544 22.9539 114.458 22.9415 114.378 22.9116C114.298 22.8817 114.225 22.835 114.165 22.7747C114.104 22.7144 114.057 22.6418 114.026 22.5618C113.996 22.4818 113.983 22.3963 113.989 22.311V11.472H116.669C116.562 11.888 116.518 12.3179 116.539 12.747C116.539 14.7746 117.345 16.7191 118.778 18.1528C120.212 19.5865 122.157 20.392 124.184 20.392C126.212 20.392 128.156 19.5865 129.59 18.1528C131.024 16.7191 131.829 14.7746 131.829 12.747C131.849 12.3185 131.808 11.8893 131.709 11.472H134.379V22.307C134.384 22.3914 134.372 22.476 134.342 22.5553C134.313 22.6345 134.266 22.7066 134.207 22.7667C134.147 22.8269 134.076 22.8738 133.997 22.9043C133.918 22.9349 133.834 22.9484 133.749 22.944H114.629V22.948ZM134.379 5.73999C134.384 5.82443 134.372 5.90905 134.342 5.98828C134.313 6.06751 134.266 6.13957 134.207 6.19972C134.147 6.25988 134.076 6.30677 133.997 6.33733C133.918 6.36788 133.834 6.3814 133.749 6.377H131.199C131.114 6.38287 131.028 6.37044 130.948 6.34055C130.868 6.31065 130.795 6.26399 130.734 6.20367C130.674 6.14335 130.627 6.07078 130.597 5.99081C130.566 5.91085 130.554 5.82532 130.559 5.73999V3.18999C130.554 3.10474 130.567 3.01935 130.597 2.9395C130.628 2.85965 130.674 2.7872 130.735 2.72699C130.795 2.66678 130.868 2.6202 130.948 2.59036C131.028 2.56053 131.114 2.54814 131.199 2.554H133.749C133.833 2.54962 133.918 2.5631 133.997 2.5936C134.075 2.62409 134.147 2.6709 134.207 2.73094C134.266 2.79099 134.312 2.86292 134.342 2.94203C134.372 3.02114 134.384 3.10563 134.379 3.18999V5.73999Z" fill="#37373F"/>
    <path fill-rule="evenodd" clip-rule="evenodd" d="M79.689 25.494H72.6489V16.703H77.0488V12.308H72.6489V9.67C72.6505 9.43719 72.744 9.21437 72.9087 9.04984C73.0734 8.8853 73.296 8.79231 73.5288 8.791H77.4888V4.39099H73.0889C71.7682 4.50233 70.5381 5.10693 69.6431 6.08443C68.748 7.06193 68.2536 8.34064 68.2588 9.666V12.304H64.7388V16.698H68.2588V25.49H57.709C57.2426 25.4892 56.7957 25.3037 56.4658 24.974C56.136 24.6443 55.9503 24.1974 55.9492 23.731V1.758C55.9505 1.29181 56.136 0.845116 56.4658 0.515656C56.7957 0.186195 57.2428 0.000791421 57.709 0H79.689C80.1536 0.00290161 80.5985 0.189296 80.9263 0.518585C81.2541 0.847875 81.4382 1.29337 81.439 1.758V23.735C81.4384 24.1998 81.2541 24.6455 80.9263 24.9751C80.5984 25.3046 80.1538 25.4911 79.689 25.494Z" fill="#4A68AD"/>
</svg>
