<svg width="258" height="43" viewBox="0 0 258 43" fill="none" xmlns="http://www.w3.org/2000/svg">
    <path d="M5.656 39.042C4.74133 39.042 3.906 38.8227 3.15 38.384C2.40333 37.9453 1.81067 37.348 1.372 36.592C0.942667 35.836 0.728 35.0053 0.728 34.1C0.728 33.1947 0.942667 32.364 1.372 31.608C1.81067 30.852 2.408 30.2547 3.164 29.816C3.92 29.3773 4.76 29.158 5.684 29.158C6.608 29.158 7.44333 29.3727 8.19 29.802C8.946 30.2313 9.53867 30.824 9.968 31.58C10.3973 32.3267 10.612 33.1573 10.612 34.072C10.612 34.9867 10.3927 35.8267 9.954 36.592C9.51533 37.348 8.918 37.9453 8.162 38.384C7.406 38.8227 6.57067 39.042 5.656 39.042ZM5.656 38.524C6.47733 38.524 7.224 38.328 7.896 37.936C8.568 37.5347 9.1 36.998 9.492 36.326C9.884 35.6447 10.08 34.8933 10.08 34.072C10.08 33.2507 9.88867 32.5087 9.506 31.846C9.12333 31.174 8.596 30.6467 7.924 30.264C7.26133 29.872 6.51467 29.676 5.684 29.676C4.85333 29.676 4.09733 29.872 3.416 30.264C2.744 30.656 2.212 31.1927 1.82 31.874C1.43733 32.546 1.246 33.288 1.246 34.1C1.246 34.912 1.43733 35.6587 1.82 36.34C2.212 37.012 2.744 37.544 3.416 37.936C4.088 38.328 4.83467 38.524 5.656 38.524ZM5.782 37.012C5.23133 37.012 4.732 36.8907 4.284 36.648C3.84533 36.396 3.5 36.0507 3.248 35.612C2.996 35.164 2.87 34.66 2.87 34.1C2.87 33.54 2.996 33.0407 3.248 32.602C3.5 32.154 3.84533 31.8087 4.284 31.566C4.732 31.314 5.23133 31.188 5.782 31.188C6.258 31.188 6.68733 31.286 7.07 31.482C7.462 31.6687 7.77467 31.93 8.008 32.266L7.406 32.714C7.21 32.4433 6.972 32.2427 6.692 32.112C6.412 31.9813 6.104 31.916 5.768 31.916C5.16133 31.916 4.65733 32.1167 4.256 32.518C3.864 32.9193 3.668 33.4467 3.668 34.1C3.668 34.7533 3.864 35.2807 4.256 35.682C4.65733 36.0833 5.16133 36.284 5.768 36.284C6.104 36.284 6.412 36.2187 6.692 36.088C6.972 35.9573 7.21 35.7567 7.406 35.486L8.008 35.92C7.77467 36.2653 7.462 36.536 7.07 36.732C6.68733 36.9187 6.258 37.012 5.782 37.012ZM22.4044 38.104V39H15.5304V38.286L19.6044 34.296C20.1177 33.792 20.463 33.358 20.6404 32.994C20.827 32.6207 20.9204 32.2473 20.9204 31.874C20.9204 31.2953 20.7197 30.8473 20.3184 30.53C19.9264 30.2033 19.3617 30.04 18.6244 30.04C17.4764 30.04 16.585 30.404 15.9504 31.132L15.2364 30.516C15.619 30.068 16.1044 29.7227 16.6924 29.48C17.2897 29.2373 17.9617 29.116 18.7084 29.116C19.707 29.116 20.4957 29.354 21.0744 29.83C21.6624 30.2967 21.9564 30.9407 21.9564 31.762C21.9564 32.266 21.8444 32.7513 21.6204 33.218C21.3964 33.6847 20.9717 34.2213 20.3464 34.828L17.0144 38.104H22.4044ZM27.5207 39.084C26.7647 39.084 26.0881 38.8833 25.4907 38.482C24.9027 38.0807 24.4407 37.5067 24.1047 36.76C23.7781 36.004 23.6147 35.1173 23.6147 34.1C23.6147 33.0827 23.7781 32.2007 24.1047 31.454C24.4407 30.698 24.9027 30.1193 25.4907 29.718C26.0881 29.3167 26.7647 29.116 27.5207 29.116C28.2767 29.116 28.9487 29.3167 29.5367 29.718C30.1341 30.1193 30.6007 30.698 30.9367 31.454C31.2727 32.2007 31.4407 33.0827 31.4407 34.1C31.4407 35.1173 31.2727 36.004 30.9367 36.76C30.6007 37.5067 30.1341 38.0807 29.5367 38.482C28.9487 38.8833 28.2767 39.084 27.5207 39.084ZM27.5207 38.16C28.0901 38.16 28.5894 38.0013 29.0187 37.684C29.4574 37.3667 29.7981 36.9047 30.0407 36.298C30.2834 35.6913 30.4047 34.9587 30.4047 34.1C30.4047 33.2413 30.2834 32.5087 30.0407 31.902C29.7981 31.2953 29.4574 30.8333 29.0187 30.516C28.5894 30.1987 28.0901 30.04 27.5207 30.04C26.9514 30.04 26.4474 30.1987 26.0087 30.516C25.5794 30.8333 25.2434 31.2953 25.0007 31.902C24.7581 32.5087 24.6367 33.2413 24.6367 34.1C24.6367 34.9587 24.7581 35.6913 25.0007 36.298C25.2434 36.9047 25.5794 37.3667 26.0087 37.684C26.4474 38.0013 26.9514 38.16 27.5207 38.16ZM35.5729 29.2V39H34.5649V30.096H32.2549V29.2H35.5729ZM43.5295 33.862C44.1455 34.0673 44.6168 34.3753 44.9435 34.786C45.2795 35.1967 45.4475 35.6913 45.4475 36.27C45.4475 36.8393 45.2935 37.3387 44.9855 37.768C44.6775 38.188 44.2342 38.5147 43.6555 38.748C43.0862 38.972 42.4142 39.084 41.6395 39.084C40.4635 39.084 39.5395 38.832 38.8675 38.328C38.1955 37.824 37.8595 37.138 37.8595 36.27C37.8595 35.682 38.0182 35.1873 38.3355 34.786C38.6622 34.3753 39.1335 34.0673 39.7495 33.862C39.2455 33.666 38.8628 33.386 38.6015 33.022C38.3402 32.6487 38.2095 32.21 38.2095 31.706C38.2095 30.9127 38.5175 30.2827 39.1335 29.816C39.7588 29.3493 40.5942 29.116 41.6395 29.116C42.3302 29.116 42.9322 29.2233 43.4455 29.438C43.9682 29.6433 44.3742 29.942 44.6635 30.334C44.9528 30.726 45.0975 31.1833 45.0975 31.706C45.0975 32.21 44.9622 32.6487 44.6915 33.022C44.4208 33.386 44.0335 33.666 43.5295 33.862ZM39.2175 31.734C39.2175 32.2753 39.4322 32.7047 39.8615 33.022C40.2908 33.3393 40.8835 33.498 41.6395 33.498C42.3955 33.498 42.9882 33.3393 43.4175 33.022C43.8562 32.7047 44.0755 32.28 44.0755 31.748C44.0755 31.1973 43.8515 30.7633 43.4035 30.446C42.9648 30.1287 42.3768 29.97 41.6395 29.97C40.8928 29.97 40.3002 30.1287 39.8615 30.446C39.4322 30.7633 39.2175 31.1927 39.2175 31.734ZM41.6395 38.23C42.5075 38.23 43.1842 38.0527 43.6695 37.698C44.1642 37.3433 44.4115 36.8627 44.4115 36.256C44.4115 35.6493 44.1642 35.1733 43.6695 34.828C43.1842 34.4733 42.5075 34.296 41.6395 34.296C40.7808 34.296 40.1042 34.4733 39.6095 34.828C39.1242 35.1733 38.8815 35.6493 38.8815 36.256C38.8815 36.872 39.1242 37.3573 39.6095 37.712C40.0948 38.0573 40.7715 38.23 41.6395 38.23ZM53.2793 30.096H49.8353V29.2H57.7593V30.096H54.3153V39H53.2793V30.096ZM61.3702 31.58C62.3315 31.58 63.0689 31.8227 63.5822 32.308C64.0955 32.784 64.3522 33.4933 64.3522 34.436V39H63.4002V37.852C63.1762 38.2347 62.8449 38.5333 62.4062 38.748C61.9769 38.9627 61.4635 39.07 60.8662 39.07C60.0449 39.07 59.3915 38.874 58.9062 38.482C58.4209 38.09 58.1782 37.572 58.1782 36.928C58.1782 36.3027 58.4022 35.7987 58.8502 35.416C59.3075 35.0333 60.0309 34.842 61.0202 34.842H63.3582V34.394C63.3582 33.7593 63.1809 33.2787 62.8262 32.952C62.4715 32.616 61.9535 32.448 61.2722 32.448C60.8055 32.448 60.3575 32.5273 59.9282 32.686C59.4989 32.8353 59.1302 33.0453 58.8222 33.316L58.3742 32.574C58.7475 32.2567 59.1955 32.014 59.7182 31.846C60.2409 31.6687 60.7915 31.58 61.3702 31.58ZM61.0202 38.286C61.5802 38.286 62.0609 38.16 62.4622 37.908C62.8635 37.6467 63.1622 37.2733 63.3582 36.788V35.584H61.0482C59.7882 35.584 59.1582 36.0227 59.1582 36.9C59.1582 37.3293 59.3215 37.67 59.6482 37.922C59.9749 38.1647 60.4322 38.286 61.0202 38.286ZM69.782 35.304L68.046 36.9V39H67.052V28.612H68.046V35.654L72.442 31.636H73.674L70.524 34.646L73.968 39H72.75L69.782 35.304ZM81.5714 35.626H75.4114C75.4674 36.3913 75.7614 37.012 76.2934 37.488C76.8254 37.9547 77.4974 38.188 78.3094 38.188C78.7668 38.188 79.1868 38.1087 79.5694 37.95C79.9521 37.782 80.2834 37.5393 80.5634 37.222L81.1234 37.866C80.7968 38.258 80.3861 38.5567 79.8914 38.762C79.4061 38.9673 78.8694 39.07 78.2814 39.07C77.5254 39.07 76.8534 38.9113 76.2654 38.594C75.6868 38.2673 75.2341 37.8193 74.9074 37.25C74.5808 36.6807 74.4174 36.0367 74.4174 35.318C74.4174 34.5993 74.5714 33.9553 74.8794 33.386C75.1968 32.8167 75.6261 32.3733 76.1674 32.056C76.7181 31.7387 77.3341 31.58 78.0154 31.58C78.6968 31.58 79.3081 31.7387 79.8494 32.056C80.3908 32.3733 80.8154 32.8167 81.1234 33.386C81.4314 33.946 81.5854 34.59 81.5854 35.318L81.5714 35.626ZM78.0154 32.434C77.3061 32.434 76.7088 32.6627 76.2234 33.12C75.7474 33.568 75.4768 34.156 75.4114 34.884H80.6334C80.5681 34.156 80.2928 33.568 79.8074 33.12C79.3314 32.6627 78.7341 32.434 78.0154 32.434ZM83.6087 28.612H84.6027V39H83.6087V28.612ZM90.3784 39.07C89.6691 39.07 89.0298 38.9113 88.4604 38.594C87.8911 38.2673 87.4431 37.8193 87.1164 37.25C86.7898 36.6807 86.6264 36.0367 86.6264 35.318C86.6264 34.5993 86.7898 33.9553 87.1164 33.386C87.4431 32.8167 87.8911 32.3733 88.4604 32.056C89.0298 31.7387 89.6691 31.58 90.3784 31.58C91.0878 31.58 91.7271 31.7387 92.2964 32.056C92.8658 32.3733 93.3091 32.8167 93.6264 33.386C93.9531 33.9553 94.1164 34.5993 94.1164 35.318C94.1164 36.0367 93.9531 36.6807 93.6264 37.25C93.3091 37.8193 92.8658 38.2673 92.2964 38.594C91.7271 38.9113 91.0878 39.07 90.3784 39.07ZM90.3784 38.188C90.9011 38.188 91.3678 38.0713 91.7784 37.838C92.1984 37.5953 92.5251 37.2547 92.7584 36.816C92.9918 36.3773 93.1084 35.878 93.1084 35.318C93.1084 34.758 92.9918 34.2587 92.7584 33.82C92.5251 33.3813 92.1984 33.0453 91.7784 32.812C91.3678 32.5693 90.9011 32.448 90.3784 32.448C89.8558 32.448 89.3844 32.5693 88.9644 32.812C88.5538 33.0453 88.2271 33.3813 87.9844 33.82C87.7511 34.2587 87.6344 34.758 87.6344 35.318C87.6344 35.878 87.7511 36.3773 87.9844 36.816C88.2271 37.2547 88.5538 37.5953 88.9644 37.838C89.3844 38.0713 89.8558 38.188 90.3784 38.188ZM99.1558 39.07C98.4464 39.07 97.8071 38.9113 97.2378 38.594C96.6684 38.2673 96.2204 37.8193 95.8938 37.25C95.5671 36.6807 95.4038 36.0367 95.4038 35.318C95.4038 34.5993 95.5671 33.9553 95.8938 33.386C96.2204 32.8167 96.6684 32.3733 97.2378 32.056C97.8071 31.7387 98.4464 31.58 99.1558 31.58C99.8651 31.58 100.504 31.7387 101.074 32.056C101.643 32.3733 102.086 32.8167 102.404 33.386C102.73 33.9553 102.894 34.5993 102.894 35.318C102.894 36.0367 102.73 36.6807 102.404 37.25C102.086 37.8193 101.643 38.2673 101.074 38.594C100.504 38.9113 99.8651 39.07 99.1558 39.07ZM99.1558 38.188C99.6784 38.188 100.145 38.0713 100.556 37.838C100.976 37.5953 101.302 37.2547 101.536 36.816C101.769 36.3773 101.886 35.878 101.886 35.318C101.886 34.758 101.769 34.2587 101.536 33.82C101.302 33.3813 100.976 33.0453 100.556 32.812C100.145 32.5693 99.6784 32.448 99.1558 32.448C98.6331 32.448 98.1618 32.5693 97.7418 32.812C97.3311 33.0453 97.0044 33.3813 96.7618 33.82C96.5284 34.2587 96.4118 34.758 96.4118 35.318C96.4118 35.878 96.5284 36.3773 96.7618 36.816C97.0044 37.2547 97.3311 37.5953 97.7418 37.838C98.1618 38.0713 98.6331 38.188 99.1558 38.188ZM107.653 35.304L105.917 36.9V39H104.923V28.612H105.917V35.654L110.313 31.636H111.545L108.395 34.646L111.839 39H110.621L107.653 35.304ZM113.566 39.07C113.361 39.07 113.183 38.9953 113.034 38.846C112.894 38.6967 112.824 38.5147 112.824 38.3C112.824 38.0853 112.894 37.908 113.034 37.768C113.183 37.6187 113.361 37.544 113.566 37.544C113.771 37.544 113.949 37.6187 114.098 37.768C114.247 37.908 114.322 38.0853 114.322 38.3C114.322 38.5147 114.247 38.6967 114.098 38.846C113.949 38.9953 113.771 39.07 113.566 39.07ZM126.455 36.382H120.995L119.819 39H118.741L123.221 29.2H124.243L128.723 39H127.631L126.455 36.382ZM126.077 35.542L123.725 30.278L121.373 35.542H126.077ZM130.134 28.612H131.128V39H130.134V28.612ZM133.894 28.612H134.888V39H133.894V28.612ZM148.22 39L145.98 35.85C145.728 35.878 145.466 35.892 145.196 35.892H142.564V39H141.528V29.2H145.196C146.446 29.2 147.426 29.4987 148.136 30.096C148.845 30.6933 149.2 31.5147 149.2 32.56C149.2 33.3253 149.004 33.974 148.612 34.506C148.229 35.0287 147.678 35.4067 146.96 35.64L149.354 39H148.22ZM145.168 35.01C146.138 35.01 146.88 34.7953 147.394 34.366C147.907 33.9367 148.164 33.3347 148.164 32.56C148.164 31.7667 147.907 31.16 147.394 30.74C146.88 30.3107 146.138 30.096 145.168 30.096H142.564V35.01H145.168ZM151.435 31.636H152.429V39H151.435V31.636ZM151.939 30.026C151.733 30.026 151.561 29.956 151.421 29.816C151.281 29.676 151.211 29.508 151.211 29.312C151.211 29.1253 151.281 28.962 151.421 28.822C151.561 28.682 151.733 28.612 151.939 28.612C152.144 28.612 152.317 28.682 152.457 28.822C152.597 28.9527 152.667 29.1113 152.667 29.298C152.667 29.5033 152.597 29.676 152.457 29.816C152.317 29.956 152.144 30.026 151.939 30.026ZM162.013 31.636V38.104C162.013 39.3547 161.705 40.2787 161.089 40.876C160.482 41.4827 159.563 41.786 158.331 41.786C157.649 41.786 157.001 41.6833 156.385 41.478C155.778 41.282 155.283 41.0067 154.901 40.652L155.405 39.896C155.759 40.2133 156.189 40.4607 156.693 40.638C157.206 40.8153 157.743 40.904 158.303 40.904C159.236 40.904 159.922 40.6847 160.361 40.246C160.799 39.8167 161.019 39.1447 161.019 38.23V37.292C160.711 37.7587 160.305 38.1133 159.801 38.356C159.306 38.5987 158.755 38.72 158.149 38.72C157.458 38.72 156.828 38.5707 156.259 38.272C155.699 37.964 155.255 37.5393 154.929 36.998C154.611 36.4473 154.453 35.8267 154.453 35.136C154.453 34.4453 154.611 33.8293 154.929 33.288C155.255 32.7467 155.699 32.3267 156.259 32.028C156.819 31.7293 157.449 31.58 158.149 31.58C158.774 31.58 159.339 31.706 159.843 31.958C160.347 32.21 160.753 32.574 161.061 33.05V31.636H162.013ZM158.247 37.838C158.779 37.838 159.259 37.726 159.689 37.502C160.118 37.2687 160.449 36.9467 160.683 36.536C160.925 36.1253 161.047 35.6587 161.047 35.136C161.047 34.6133 160.925 34.1513 160.683 33.75C160.449 33.3393 160.118 33.022 159.689 32.798C159.269 32.5647 158.788 32.448 158.247 32.448C157.715 32.448 157.234 32.56 156.805 32.784C156.385 33.008 156.053 33.3253 155.811 33.736C155.577 34.1467 155.461 34.6133 155.461 35.136C155.461 35.6587 155.577 36.1253 155.811 36.536C156.053 36.9467 156.385 37.2687 156.805 37.502C157.234 37.726 157.715 37.838 158.247 37.838ZM168.544 31.58C169.468 31.58 170.201 31.8507 170.742 32.392C171.293 32.924 171.568 33.7033 171.568 34.73V39H170.574V34.828C170.574 34.0627 170.383 33.4793 170 33.078C169.618 32.6767 169.072 32.476 168.362 32.476C167.569 32.476 166.939 32.714 166.472 33.19C166.015 33.6567 165.786 34.3053 165.786 35.136V39H164.792V28.612H165.786V32.924C166.057 32.4947 166.43 32.1633 166.906 31.93C167.382 31.6967 167.928 31.58 168.544 31.58ZM178.145 38.552C177.958 38.72 177.725 38.8507 177.445 38.944C177.174 39.028 176.89 39.07 176.591 39.07C175.9 39.07 175.368 38.8833 174.995 38.51C174.622 38.1367 174.435 37.6093 174.435 36.928V32.476H173.119V31.636H174.435V30.026H175.429V31.636H177.669V32.476H175.429V36.872C175.429 37.3107 175.536 37.6467 175.751 37.88C175.975 38.104 176.292 38.216 176.703 38.216C176.908 38.216 177.104 38.1833 177.291 38.118C177.487 38.0527 177.655 37.9593 177.795 37.838L178.145 38.552ZM181.928 39.07C181.331 39.07 180.757 38.986 180.206 38.818C179.665 38.6407 179.24 38.4213 178.932 38.16L179.38 37.376C179.688 37.6187 180.076 37.8193 180.542 37.978C181.009 38.1273 181.494 38.202 181.998 38.202C182.67 38.202 183.165 38.0993 183.482 37.894C183.809 37.6793 183.972 37.3807 183.972 36.998C183.972 36.7273 183.884 36.5173 183.706 36.368C183.529 36.2093 183.305 36.0927 183.034 36.018C182.764 35.934 182.404 35.8547 181.956 35.78C181.359 35.668 180.878 35.556 180.514 35.444C180.15 35.3227 179.838 35.122 179.576 34.842C179.324 34.562 179.198 34.1747 179.198 33.68C179.198 33.064 179.455 32.56 179.968 32.168C180.482 31.776 181.196 31.58 182.11 31.58C182.586 31.58 183.062 31.6453 183.538 31.776C184.014 31.8973 184.406 32.0607 184.714 32.266L184.28 33.064C183.674 32.644 182.95 32.434 182.11 32.434C181.476 32.434 180.995 32.546 180.668 32.77C180.351 32.994 180.192 33.288 180.192 33.652C180.192 33.932 180.281 34.156 180.458 34.324C180.645 34.492 180.874 34.618 181.144 34.702C181.415 34.7767 181.788 34.856 182.264 34.94C182.852 35.052 183.324 35.164 183.678 35.276C184.033 35.388 184.336 35.5793 184.588 35.85C184.84 36.1207 184.966 36.494 184.966 36.97C184.966 37.614 184.696 38.1273 184.154 38.51C183.622 38.8833 182.88 39.07 181.928 39.07ZM197.37 39L195.13 35.85C194.878 35.878 194.617 35.892 194.346 35.892H191.714V39H190.678V29.2H194.346C195.597 29.2 196.577 29.4987 197.286 30.096C197.995 30.6933 198.35 31.5147 198.35 32.56C198.35 33.3253 198.154 33.974 197.762 34.506C197.379 35.0287 196.829 35.4067 196.11 35.64L198.504 39H197.37ZM194.318 35.01C195.289 35.01 196.031 34.7953 196.544 34.366C197.057 33.9367 197.314 33.3347 197.314 32.56C197.314 31.7667 197.057 31.16 196.544 30.74C196.031 30.3107 195.289 30.096 194.318 30.096H191.714V35.01H194.318ZM206.997 35.626H200.837C200.893 36.3913 201.187 37.012 201.719 37.488C202.251 37.9547 202.923 38.188 203.735 38.188C204.193 38.188 204.613 38.1087 204.995 37.95C205.378 37.782 205.709 37.5393 205.989 37.222L206.549 37.866C206.223 38.258 205.812 38.5567 205.317 38.762C204.832 38.9673 204.295 39.07 203.707 39.07C202.951 39.07 202.279 38.9113 201.691 38.594C201.113 38.2673 200.66 37.8193 200.333 37.25C200.007 36.6807 199.843 36.0367 199.843 35.318C199.843 34.5993 199.997 33.9553 200.305 33.386C200.623 32.8167 201.052 32.3733 201.593 32.056C202.144 31.7387 202.76 31.58 203.441 31.58C204.123 31.58 204.734 31.7387 205.275 32.056C205.817 32.3733 206.241 32.8167 206.549 33.386C206.857 33.946 207.011 34.59 207.011 35.318L206.997 35.626ZM203.441 32.434C202.732 32.434 202.135 32.6627 201.649 33.12C201.173 33.568 200.903 34.156 200.837 34.884H206.059C205.994 34.156 205.719 33.568 205.233 33.12C204.757 32.6627 204.16 32.434 203.441 32.434ZM211.008 39.07C210.411 39.07 209.837 38.986 209.286 38.818C208.745 38.6407 208.32 38.4213 208.012 38.16L208.46 37.376C208.768 37.6187 209.156 37.8193 209.622 37.978C210.089 38.1273 210.574 38.202 211.078 38.202C211.75 38.202 212.245 38.0993 212.562 37.894C212.889 37.6793 213.052 37.3807 213.052 36.998C213.052 36.7273 212.964 36.5173 212.786 36.368C212.609 36.2093 212.385 36.0927 212.114 36.018C211.844 35.934 211.484 35.8547 211.036 35.78C210.439 35.668 209.958 35.556 209.594 35.444C209.23 35.3227 208.918 35.122 208.656 34.842C208.404 34.562 208.278 34.1747 208.278 33.68C208.278 33.064 208.535 32.56 209.048 32.168C209.562 31.776 210.276 31.58 211.19 31.58C211.666 31.58 212.142 31.6453 212.618 31.776C213.094 31.8973 213.486 32.0607 213.794 32.266L213.36 33.064C212.754 32.644 212.03 32.434 211.19 32.434C210.556 32.434 210.075 32.546 209.748 32.77C209.431 32.994 209.272 33.288 209.272 33.652C209.272 33.932 209.361 34.156 209.538 34.324C209.725 34.492 209.954 34.618 210.224 34.702C210.495 34.7767 210.868 34.856 211.344 34.94C211.932 35.052 212.404 35.164 212.758 35.276C213.113 35.388 213.416 35.5793 213.668 35.85C213.92 36.1207 214.046 36.494 214.046 36.97C214.046 37.614 213.776 38.1273 213.234 38.51C212.702 38.8833 211.96 39.07 211.008 39.07ZM222.296 35.626H216.136C216.192 36.3913 216.486 37.012 217.018 37.488C217.55 37.9547 218.222 38.188 219.034 38.188C219.491 38.188 219.911 38.1087 220.294 37.95C220.677 37.782 221.008 37.5393 221.288 37.222L221.848 37.866C221.521 38.258 221.111 38.5567 220.616 38.762C220.131 38.9673 219.594 39.07 219.006 39.07C218.25 39.07 217.578 38.9113 216.99 38.594C216.411 38.2673 215.959 37.8193 215.632 37.25C215.305 36.6807 215.142 36.0367 215.142 35.318C215.142 34.5993 215.296 33.9553 215.604 33.386C215.921 32.8167 216.351 32.3733 216.892 32.056C217.443 31.7387 218.059 31.58 218.74 31.58C219.421 31.58 220.033 31.7387 220.574 32.056C221.115 32.3733 221.54 32.8167 221.848 33.386C222.156 33.946 222.31 34.59 222.31 35.318L222.296 35.626ZM218.74 32.434C218.031 32.434 217.433 32.6627 216.948 33.12C216.472 33.568 216.201 34.156 216.136 34.884H221.358C221.293 34.156 221.017 33.568 220.532 33.12C220.056 32.6627 219.459 32.434 218.74 32.434ZM225.285 33.078C225.519 32.5833 225.864 32.21 226.321 31.958C226.788 31.706 227.362 31.58 228.043 31.58V32.546L227.805 32.532C227.031 32.532 226.424 32.77 225.985 33.246C225.547 33.722 225.327 34.3893 225.327 35.248V39H224.333V31.636H225.285V33.078ZM236.345 31.636L233.069 39H232.047L228.785 31.636H229.821L232.579 37.908L235.365 31.636H236.345ZM243.952 35.626H237.792C237.848 36.3913 238.142 37.012 238.674 37.488C239.206 37.9547 239.878 38.188 240.69 38.188C241.148 38.188 241.568 38.1087 241.95 37.95C242.333 37.782 242.664 37.5393 242.944 37.222L243.504 37.866C243.178 38.258 242.767 38.5567 242.272 38.762C241.787 38.9673 241.25 39.07 240.662 39.07C239.906 39.07 239.234 38.9113 238.646 38.594C238.068 38.2673 237.615 37.8193 237.288 37.25C236.962 36.6807 236.798 36.0367 236.798 35.318C236.798 34.5993 236.952 33.9553 237.26 33.386C237.578 32.8167 238.007 32.3733 238.548 32.056C239.099 31.7387 239.715 31.58 240.396 31.58C241.078 31.58 241.689 31.7387 242.23 32.056C242.772 32.3733 243.196 32.8167 243.504 33.386C243.812 33.946 243.966 34.59 243.966 35.318L243.952 35.626ZM240.396 32.434C239.687 32.434 239.09 32.6627 238.604 33.12C238.128 33.568 237.858 34.156 237.792 34.884H243.014C242.949 34.156 242.674 33.568 242.188 33.12C241.712 32.6627 241.115 32.434 240.396 32.434ZM252.71 28.612V39H251.758V37.544C251.459 38.0387 251.062 38.4167 250.568 38.678C250.082 38.9393 249.532 39.07 248.916 39.07C248.225 39.07 247.6 38.9113 247.04 38.594C246.48 38.2767 246.041 37.8333 245.724 37.264C245.406 36.6947 245.248 36.046 245.248 35.318C245.248 34.59 245.406 33.9413 245.724 33.372C246.041 32.8027 246.48 32.364 247.04 32.056C247.6 31.7387 248.225 31.58 248.916 31.58C249.513 31.58 250.05 31.706 250.526 31.958C251.011 32.2007 251.408 32.56 251.716 33.036V28.612H252.71ZM249 38.188C249.513 38.188 249.975 38.0713 250.386 37.838C250.806 37.5953 251.132 37.2547 251.366 36.816C251.608 36.3773 251.73 35.878 251.73 35.318C251.73 34.758 251.608 34.2587 251.366 33.82C251.132 33.3813 250.806 33.0453 250.386 32.812C249.975 32.5693 249.513 32.448 249 32.448C248.477 32.448 248.006 32.5693 247.586 32.812C247.175 33.0453 246.848 33.3813 246.606 33.82C246.372 34.2587 246.256 34.758 246.256 35.318C246.256 35.878 246.372 36.3773 246.606 36.816C246.848 37.2547 247.175 37.5953 247.586 37.838C248.006 38.0713 248.477 38.188 249 38.188ZM255.576 39.07C255.37 39.07 255.193 38.9953 255.044 38.846C254.904 38.6967 254.834 38.5147 254.834 38.3C254.834 38.0853 254.904 37.908 255.044 37.768C255.193 37.6187 255.37 37.544 255.576 37.544C255.781 37.544 255.958 37.6187 256.108 37.768C256.257 37.908 256.332 38.0853 256.332 38.3C256.332 38.5147 256.257 38.6967 256.108 38.846C255.958 38.9953 255.781 39.07 255.576 39.07Z" fill="#B3B3B3"/>
    <path d="M17.064 5.096H13.62V14H12.598V5.096H9.154V4.2H17.064V5.096ZM24.3188 10.626H18.1588C18.2148 11.3913 18.5088 12.012 19.0408 12.488C19.5728 12.9547 20.2448 13.188 21.0568 13.188C21.5142 13.188 21.9342 13.1087 22.3168 12.95C22.6995 12.782 23.0308 12.5393 23.3108 12.222L23.8708 12.866C23.5442 13.258 23.1335 13.5567 22.6388 13.762C22.1535 13.9673 21.6168 14.07 21.0288 14.07C20.2728 14.07 19.6008 13.9113 19.0128 13.594C18.4342 13.2673 17.9815 12.8193 17.6548 12.25C17.3282 11.6807 17.1648 11.0367 17.1648 10.318C17.1648 9.59933 17.3188 8.95533 17.6268 8.386C17.9442 7.81667 18.3735 7.37333 18.9148 7.056C19.4655 6.73867 20.0815 6.58 20.7628 6.58C21.4442 6.58 22.0555 6.73867 22.5968 7.056C23.1382 7.37333 23.5628 7.81667 23.8708 8.386C24.1788 8.946 24.3328 9.59 24.3328 10.318L24.3188 10.626ZM20.7628 7.434C20.0535 7.434 19.4562 7.66267 18.9708 8.12C18.4948 8.568 18.2242 9.156 18.1588 9.884H23.3808C23.3155 9.156 23.0402 8.568 22.5548 8.12C22.0788 7.66267 21.4815 7.434 20.7628 7.434ZM30.9341 14L28.5961 10.92L26.2441 14H25.1241L28.0361 10.22L25.2641 6.636H26.3841L28.5961 9.52L30.8081 6.636H31.9001L29.1281 10.22L32.0681 14H30.9341ZM33.7672 14.07C33.5619 14.07 33.3845 13.9953 33.2352 13.846C33.0952 13.6967 33.0252 13.5147 33.0252 13.3C33.0252 13.0853 33.0952 12.908 33.2352 12.768C33.3845 12.6187 33.5619 12.544 33.7672 12.544C33.9725 12.544 34.1499 12.6187 34.2992 12.768C34.4485 12.908 34.5232 13.0853 34.5232 13.3C34.5232 13.5147 34.4485 13.6967 34.2992 13.846C34.1499 13.9953 33.9725 14.07 33.7672 14.07ZM46.9361 6.636V14H45.9421V7.518H41.3221V14H40.3281V6.636H46.9361ZM52.7997 14.07C52.0903 14.07 51.451 13.9113 50.8817 13.594C50.3123 13.2673 49.8643 12.8193 49.5377 12.25C49.211 11.6807 49.0477 11.0367 49.0477 10.318C49.0477 9.59933 49.211 8.95533 49.5377 8.386C49.8643 7.81667 50.3123 7.37333 50.8817 7.056C51.451 6.73867 52.0903 6.58 52.7997 6.58C53.509 6.58 54.1483 6.73867 54.7177 7.056C55.287 7.37333 55.7303 7.81667 56.0477 8.386C56.3743 8.95533 56.5377 9.59933 56.5377 10.318C56.5377 11.0367 56.3743 11.6807 56.0477 12.25C55.7303 12.8193 55.287 13.2673 54.7177 13.594C54.1483 13.9113 53.509 14.07 52.7997 14.07ZM52.7997 13.188C53.3223 13.188 53.789 13.0713 54.1997 12.838C54.6197 12.5953 54.9463 12.2547 55.1797 11.816C55.413 11.3773 55.5297 10.878 55.5297 10.318C55.5297 9.758 55.413 9.25867 55.1797 8.82C54.9463 8.38133 54.6197 8.04533 54.1997 7.812C53.789 7.56933 53.3223 7.448 52.7997 7.448C52.277 7.448 51.8057 7.56933 51.3857 7.812C50.975 8.04533 50.6483 8.38133 50.4057 8.82C50.1723 9.25867 50.0557 9.758 50.0557 10.318C50.0557 10.878 50.1723 11.3773 50.4057 11.816C50.6483 12.2547 50.975 12.5953 51.3857 12.838C51.8057 13.0713 52.277 13.188 52.7997 13.188ZM65.803 13.132V15.778H64.865V14H58.271V15.778H57.333V13.132H57.753C58.2477 13.104 58.5837 12.74 58.761 12.04C58.9384 11.34 59.0597 10.36 59.125 9.1L59.223 6.636H64.655V13.132H65.803ZM60.035 9.156C59.9884 10.2013 59.8997 11.0647 59.769 11.746C59.6384 12.418 59.405 12.88 59.069 13.132H63.661V7.518H60.119L60.035 9.156ZM74.9222 13.132V15.778H73.9842V14H67.3902V15.778H66.4522V13.132H66.8722C67.3668 13.104 67.7028 12.74 67.8802 12.04C68.0575 11.34 68.1788 10.36 68.2442 9.1L68.3422 6.636H73.7742V13.132H74.9222ZM69.1542 9.156C69.1075 10.2013 69.0188 11.0647 68.8882 11.746C68.7575 12.418 68.5242 12.88 68.1882 13.132H72.7802V7.518H69.2382L69.1542 9.156ZM83.2993 10.626H77.1393C77.1953 11.3913 77.4893 12.012 78.0213 12.488C78.5533 12.9547 79.2253 13.188 80.0373 13.188C80.4946 13.188 80.9146 13.1087 81.2973 12.95C81.68 12.782 82.0113 12.5393 82.2913 12.222L82.8513 12.866C82.5246 13.258 82.114 13.5567 81.6193 13.762C81.134 13.9673 80.5973 14.07 80.0093 14.07C79.2533 14.07 78.5813 13.9113 77.9933 13.594C77.4146 13.2673 76.962 12.8193 76.6353 12.25C76.3086 11.6807 76.1453 11.0367 76.1453 10.318C76.1453 9.59933 76.2993 8.95533 76.6073 8.386C76.9246 7.81667 77.354 7.37333 77.8953 7.056C78.446 6.73867 79.062 6.58 79.7433 6.58C80.4246 6.58 81.036 6.73867 81.5773 7.056C82.1186 7.37333 82.5433 7.81667 82.8513 8.386C83.1593 8.946 83.3133 9.59 83.3133 10.318L83.2993 10.626ZM79.7433 7.434C79.034 7.434 78.4366 7.66267 77.9513 8.12C77.4753 8.568 77.2046 9.156 77.1393 9.884H82.3613C82.296 9.156 82.0206 8.568 81.5353 8.12C81.0593 7.66267 80.462 7.434 79.7433 7.434ZM89.3076 6.58C89.9983 6.58 90.6236 6.73867 91.1836 7.056C91.7436 7.364 92.1823 7.80267 92.4996 8.372C92.8169 8.94133 92.9756 9.59 92.9756 10.318C92.9756 11.0553 92.8169 11.7087 92.4996 12.278C92.1823 12.8473 91.7436 13.2907 91.1836 13.608C90.6329 13.916 90.0076 14.07 89.3076 14.07C88.7103 14.07 88.1689 13.9487 87.6836 13.706C87.2076 13.454 86.8156 13.09 86.5076 12.614V16.716H85.5136V6.636H86.4656V8.092C86.7643 7.60667 87.1563 7.23333 87.6416 6.972C88.1363 6.71067 88.6916 6.58 89.3076 6.58ZM89.2376 13.188C89.7509 13.188 90.2176 13.0713 90.6376 12.838C91.0576 12.5953 91.3843 12.2547 91.6176 11.816C91.8603 11.3773 91.9816 10.878 91.9816 10.318C91.9816 9.758 91.8603 9.26333 91.6176 8.834C91.3843 8.39533 91.0576 8.05467 90.6376 7.812C90.2176 7.56933 89.7509 7.448 89.2376 7.448C88.7149 7.448 88.2436 7.56933 87.8236 7.812C87.4129 8.05467 87.0863 8.39533 86.8436 8.834C86.6103 9.26333 86.4936 9.758 86.4936 10.318C86.4936 10.878 86.6103 11.3773 86.8436 11.816C87.0863 12.2547 87.4129 12.5953 87.8236 12.838C88.2436 13.0713 88.7149 13.188 89.2376 13.188ZM101.306 10.724H99.7095V14H98.7155V10.724H97.1195L94.8655 14H93.6755L96.3215 10.206L93.8855 6.636H94.9635L97.1195 9.87H98.7155V6.636H99.7095V9.87H101.306L103.476 6.636H104.554L102.118 10.22L104.764 14H103.574L101.306 10.724ZM109.092 10.724H107.412V14H106.418V6.636H107.412V9.87H109.106L111.696 6.636H112.774L109.876 10.206L112.984 14H111.808L109.092 10.724ZM116.95 6.58C117.911 6.58 118.649 6.82267 119.162 7.308C119.675 7.784 119.932 8.49333 119.932 9.436V14H118.98V12.852C118.756 13.2347 118.425 13.5333 117.986 13.748C117.557 13.9627 117.043 14.07 116.446 14.07C115.625 14.07 114.971 13.874 114.486 13.482C114.001 13.09 113.758 12.572 113.758 11.928C113.758 11.3027 113.982 10.7987 114.43 10.416C114.887 10.0333 115.611 9.842 116.6 9.842H118.938V9.394C118.938 8.75933 118.761 8.27867 118.406 7.952C118.051 7.616 117.533 7.448 116.852 7.448C116.385 7.448 115.937 7.52733 115.508 7.686C115.079 7.83533 114.71 8.04533 114.402 8.316L113.954 7.574C114.327 7.25667 114.775 7.014 115.298 6.846C115.821 6.66867 116.371 6.58 116.95 6.58ZM116.6 13.286C117.16 13.286 117.641 13.16 118.042 12.908C118.443 12.6467 118.742 12.2733 118.938 11.788V10.584H116.628C115.368 10.584 114.738 11.0227 114.738 11.9C114.738 12.3293 114.901 12.67 115.228 12.922C115.555 13.1647 116.012 13.286 116.6 13.286ZM122.648 8.106C122.443 8.106 122.265 8.03133 122.116 7.882C121.976 7.73267 121.906 7.55067 121.906 7.336C121.906 7.12133 121.976 6.944 122.116 6.804C122.265 6.65467 122.443 6.58 122.648 6.58C122.853 6.58 123.031 6.65467 123.18 6.804C123.329 6.944 123.404 7.12133 123.404 7.336C123.404 7.55067 123.329 7.73267 123.18 7.882C123.031 8.03133 122.853 8.106 122.648 8.106ZM122.648 14.07C122.443 14.07 122.265 13.9953 122.116 13.846C121.976 13.6967 121.906 13.5147 121.906 13.3C121.906 13.0853 121.976 12.908 122.116 12.768C122.265 12.6187 122.443 12.544 122.648 12.544C122.853 12.544 123.031 12.6187 123.18 12.768C123.329 12.908 123.404 13.0853 123.404 13.3C123.404 13.5147 123.329 13.6967 123.18 13.846C123.031 13.9953 122.853 14.07 122.648 14.07ZM134.137 8.862C134.753 9.06733 135.224 9.37533 135.551 9.786C135.887 10.1967 136.055 10.6913 136.055 11.27C136.055 11.8393 135.901 12.3387 135.593 12.768C135.285 13.188 134.842 13.5147 134.263 13.748C133.694 13.972 133.022 14.084 132.247 14.084C131.071 14.084 130.147 13.832 129.475 13.328C128.803 12.824 128.467 12.138 128.467 11.27C128.467 10.682 128.626 10.1873 128.943 9.786C129.27 9.37533 129.741 9.06733 130.357 8.862C129.853 8.666 129.47 8.386 129.209 8.022C128.948 7.64867 128.817 7.21 128.817 6.706C128.817 5.91267 129.125 5.28267 129.741 4.816C130.366 4.34933 131.202 4.116 132.247 4.116C132.938 4.116 133.54 4.22333 134.053 4.438C134.576 4.64333 134.982 4.942 135.271 5.334C135.56 5.726 135.705 6.18333 135.705 6.706C135.705 7.21 135.57 7.64867 135.299 8.022C135.028 8.386 134.641 8.666 134.137 8.862ZM129.825 6.734C129.825 7.27533 130.04 7.70467 130.469 8.022C130.898 8.33933 131.491 8.498 132.247 8.498C133.003 8.498 133.596 8.33933 134.025 8.022C134.464 7.70467 134.683 7.28 134.683 6.748C134.683 6.19733 134.459 5.76333 134.011 5.446C133.572 5.12867 132.984 4.97 132.247 4.97C131.5 4.97 130.908 5.12867 130.469 5.446C130.04 5.76333 129.825 6.19267 129.825 6.734ZM132.247 13.23C133.115 13.23 133.792 13.0527 134.277 12.698C134.772 12.3433 135.019 11.8627 135.019 11.256C135.019 10.6493 134.772 10.1733 134.277 9.828C133.792 9.47333 133.115 9.296 132.247 9.296C131.388 9.296 130.712 9.47333 130.217 9.828C129.732 10.1733 129.489 10.6493 129.489 11.256C129.489 11.872 129.732 12.3573 130.217 12.712C130.702 13.0573 131.379 13.23 132.247 13.23ZM139.803 16.716C139.28 15.8573 138.879 14.8727 138.599 13.762C138.319 12.642 138.179 11.4427 138.179 10.164C138.179 8.88533 138.319 7.686 138.599 6.566C138.879 5.43667 139.28 4.452 139.803 3.612H140.755C140.204 4.55467 139.798 5.56733 139.537 6.65C139.285 7.73267 139.159 8.904 139.159 10.164C139.159 11.424 139.285 12.5953 139.537 13.678C139.798 14.7607 140.204 15.7733 140.755 16.716H139.803ZM147.672 8.862C148.288 9.06733 148.759 9.37533 149.086 9.786C149.422 10.1967 149.59 10.6913 149.59 11.27C149.59 11.8393 149.436 12.3387 149.128 12.768C148.82 13.188 148.377 13.5147 147.798 13.748C147.229 13.972 146.557 14.084 145.782 14.084C144.606 14.084 143.682 13.832 143.01 13.328C142.338 12.824 142.002 12.138 142.002 11.27C142.002 10.682 142.161 10.1873 142.478 9.786C142.805 9.37533 143.276 9.06733 143.892 8.862C143.388 8.666 143.005 8.386 142.744 8.022C142.483 7.64867 142.352 7.21 142.352 6.706C142.352 5.91267 142.66 5.28267 143.276 4.816C143.901 4.34933 144.737 4.116 145.782 4.116C146.473 4.116 147.075 4.22333 147.588 4.438C148.111 4.64333 148.517 4.942 148.806 5.334C149.095 5.726 149.24 6.18333 149.24 6.706C149.24 7.21 149.105 7.64867 148.834 8.022C148.563 8.386 148.176 8.666 147.672 8.862ZM143.36 6.734C143.36 7.27533 143.575 7.70467 144.004 8.022C144.433 8.33933 145.026 8.498 145.782 8.498C146.538 8.498 147.131 8.33933 147.56 8.022C147.999 7.70467 148.218 7.28 148.218 6.748C148.218 6.19733 147.994 5.76333 147.546 5.446C147.107 5.12867 146.519 4.97 145.782 4.97C145.035 4.97 144.443 5.12867 144.004 5.446C143.575 5.76333 143.36 6.19267 143.36 6.734ZM145.782 13.23C146.65 13.23 147.327 13.0527 147.812 12.698C148.307 12.3433 148.554 11.8627 148.554 11.256C148.554 10.6493 148.307 10.1733 147.812 9.828C147.327 9.47333 146.65 9.296 145.782 9.296C144.923 9.296 144.247 9.47333 143.752 9.828C143.267 10.1733 143.024 10.6493 143.024 11.256C143.024 11.872 143.267 12.3573 143.752 12.712C144.237 13.0573 144.914 13.23 145.782 13.23ZM154.892 14.084C154.136 14.084 153.459 13.8833 152.862 13.482C152.274 13.0807 151.812 12.5067 151.476 11.76C151.149 11.004 150.986 10.1173 150.986 9.1C150.986 8.08267 151.149 7.20067 151.476 6.454C151.812 5.698 152.274 5.11933 152.862 4.718C153.459 4.31667 154.136 4.116 154.892 4.116C155.648 4.116 156.32 4.31667 156.908 4.718C157.505 5.11933 157.972 5.698 158.308 6.454C158.644 7.20067 158.812 8.08267 158.812 9.1C158.812 10.1173 158.644 11.004 158.308 11.76C157.972 12.5067 157.505 13.0807 156.908 13.482C156.32 13.8833 155.648 14.084 154.892 14.084ZM154.892 13.16C155.461 13.16 155.96 13.0013 156.39 12.684C156.828 12.3667 157.169 11.9047 157.412 11.298C157.654 10.6913 157.776 9.95867 157.776 9.1C157.776 8.24133 157.654 7.50867 157.412 6.902C157.169 6.29533 156.828 5.83333 156.39 5.516C155.96 5.19867 155.461 5.04 154.892 5.04C154.322 5.04 153.818 5.19867 153.38 5.516C152.95 5.83333 152.614 6.29533 152.372 6.902C152.129 7.50867 152.008 8.24133 152.008 9.1C152.008 9.95867 152.129 10.6913 152.372 11.298C152.614 11.9047 152.95 12.3667 153.38 12.684C153.818 13.0013 154.322 13.16 154.892 13.16ZM164.161 14.084C163.405 14.084 162.729 13.8833 162.131 13.482C161.543 13.0807 161.081 12.5067 160.745 11.76C160.419 11.004 160.255 10.1173 160.255 9.1C160.255 8.08267 160.419 7.20067 160.745 6.454C161.081 5.698 161.543 5.11933 162.131 4.718C162.729 4.31667 163.405 4.116 164.161 4.116C164.917 4.116 165.589 4.31667 166.177 4.718C166.775 5.11933 167.241 5.698 167.577 6.454C167.913 7.20067 168.081 8.08267 168.081 9.1C168.081 10.1173 167.913 11.004 167.577 11.76C167.241 12.5067 166.775 13.0807 166.177 13.482C165.589 13.8833 164.917 14.084 164.161 14.084ZM164.161 13.16C164.731 13.16 165.23 13.0013 165.659 12.684C166.098 12.3667 166.439 11.9047 166.681 11.298C166.924 10.6913 167.045 9.95867 167.045 9.1C167.045 8.24133 166.924 7.50867 166.681 6.902C166.439 6.29533 166.098 5.83333 165.659 5.516C165.23 5.19867 164.731 5.04 164.161 5.04C163.592 5.04 163.088 5.19867 162.649 5.516C162.22 5.83333 161.884 6.29533 161.641 6.902C161.399 7.50867 161.277 8.24133 161.277 9.1C161.277 9.95867 161.399 10.6913 161.641 11.298C161.884 11.9047 162.22 12.3667 162.649 12.684C163.088 13.0013 163.592 13.16 164.161 13.16ZM169.357 16.716C169.908 15.7733 170.314 14.7653 170.575 13.692C170.836 12.6093 170.967 11.4333 170.967 10.164C170.967 8.89467 170.836 7.72333 170.575 6.65C170.314 5.56733 169.908 4.55467 169.357 3.612H170.309C170.832 4.452 171.233 5.43667 171.513 6.566C171.802 7.686 171.947 8.88533 171.947 10.164C171.947 11.4427 171.807 12.642 171.527 13.762C171.247 14.882 170.841 15.8667 170.309 16.716H169.357ZM181.048 4.2V4.914L176.946 14H175.854L179.886 5.096H174.846V6.93H173.852V4.2H181.048ZM186.009 14.084C185.253 14.084 184.576 13.8833 183.979 13.482C183.391 13.0807 182.929 12.5067 182.593 11.76C182.266 11.004 182.103 10.1173 182.103 9.1C182.103 8.08267 182.266 7.20067 182.593 6.454C182.929 5.698 183.391 5.11933 183.979 4.718C184.576 4.31667 185.253 4.116 186.009 4.116C186.765 4.116 187.437 4.31667 188.025 4.718C188.622 5.11933 189.089 5.698 189.425 6.454C189.761 7.20067 189.929 8.08267 189.929 9.1C189.929 10.1173 189.761 11.004 189.425 11.76C189.089 12.5067 188.622 13.0807 188.025 13.482C187.437 13.8833 186.765 14.084 186.009 14.084ZM186.009 13.16C186.578 13.16 187.078 13.0013 187.507 12.684C187.946 12.3667 188.286 11.9047 188.529 11.298C188.772 10.6913 188.893 9.95867 188.893 9.1C188.893 8.24133 188.772 7.50867 188.529 6.902C188.286 6.29533 187.946 5.83333 187.507 5.516C187.078 5.19867 186.578 5.04 186.009 5.04C185.44 5.04 184.936 5.19867 184.497 5.516C184.068 5.83333 183.732 6.29533 183.489 6.902C183.246 7.50867 183.125 8.24133 183.125 9.1C183.125 9.95867 183.246 10.6913 183.489 11.298C183.732 11.9047 184.068 12.3667 184.497 12.684C184.936 13.0013 185.44 13.16 186.009 13.16ZM195.279 14.084C194.523 14.084 193.846 13.8833 193.249 13.482C192.661 13.0807 192.199 12.5067 191.863 11.76C191.536 11.004 191.373 10.1173 191.373 9.1C191.373 8.08267 191.536 7.20067 191.863 6.454C192.199 5.698 192.661 5.11933 193.249 4.718C193.846 4.31667 194.523 4.116 195.279 4.116C196.035 4.116 196.707 4.31667 197.295 4.718C197.892 5.11933 198.359 5.698 198.695 6.454C199.031 7.20067 199.199 8.08267 199.199 9.1C199.199 10.1173 199.031 11.004 198.695 11.76C198.359 12.5067 197.892 13.0807 197.295 13.482C196.707 13.8833 196.035 14.084 195.279 14.084ZM195.279 13.16C195.848 13.16 196.347 13.0013 196.777 12.684C197.215 12.3667 197.556 11.9047 197.799 11.298C198.041 10.6913 198.163 9.95867 198.163 9.1C198.163 8.24133 198.041 7.50867 197.799 6.902C197.556 6.29533 197.215 5.83333 196.777 5.516C196.347 5.19867 195.848 5.04 195.279 5.04C194.709 5.04 194.205 5.19867 193.767 5.516C193.337 5.83333 193.001 6.29533 192.759 6.902C192.516 7.50867 192.395 8.24133 192.395 9.1C192.395 9.95867 192.516 10.6913 192.759 11.298C193.001 11.9047 193.337 12.3667 193.767 12.684C194.205 13.0013 194.709 13.16 195.279 13.16ZM200.863 9.772H204.531V10.64H200.863V9.772ZM210.113 14.084C209.357 14.084 208.68 13.8833 208.083 13.482C207.495 13.0807 207.033 12.5067 206.697 11.76C206.37 11.004 206.207 10.1173 206.207 9.1C206.207 8.08267 206.37 7.20067 206.697 6.454C207.033 5.698 207.495 5.11933 208.083 4.718C208.68 4.31667 209.357 4.116 210.113 4.116C210.869 4.116 211.541 4.31667 212.129 4.718C212.726 5.11933 213.193 5.698 213.529 6.454C213.865 7.20067 214.033 8.08267 214.033 9.1C214.033 10.1173 213.865 11.004 213.529 11.76C213.193 12.5067 212.726 13.0807 212.129 13.482C211.541 13.8833 210.869 14.084 210.113 14.084ZM210.113 13.16C210.682 13.16 211.181 13.0013 211.611 12.684C212.049 12.3667 212.39 11.9047 212.633 11.298C212.875 10.6913 212.997 9.95867 212.997 9.1C212.997 8.24133 212.875 7.50867 212.633 6.902C212.39 6.29533 212.049 5.83333 211.611 5.516C211.181 5.19867 210.682 5.04 210.113 5.04C209.543 5.04 209.039 5.19867 208.601 5.516C208.171 5.83333 207.835 6.29533 207.593 6.902C207.35 7.50867 207.229 8.24133 207.229 9.1C207.229 9.95867 207.35 10.6913 207.593 11.298C207.835 11.9047 208.171 12.3667 208.601 12.684C209.039 13.0013 209.543 13.16 210.113 13.16ZM219.382 14.084C218.626 14.084 217.949 13.8833 217.352 13.482C216.764 13.0807 216.302 12.5067 215.966 11.76C215.639 11.004 215.476 10.1173 215.476 9.1C215.476 8.08267 215.639 7.20067 215.966 6.454C216.302 5.698 216.764 5.11933 217.352 4.718C217.949 4.31667 218.626 4.116 219.382 4.116C220.138 4.116 220.81 4.31667 221.398 4.718C221.995 5.11933 222.462 5.698 222.798 6.454C223.134 7.20067 223.302 8.08267 223.302 9.1C223.302 10.1173 223.134 11.004 222.798 11.76C222.462 12.5067 221.995 13.0807 221.398 13.482C220.81 13.8833 220.138 14.084 219.382 14.084ZM219.382 13.16C219.951 13.16 220.451 13.0013 220.88 12.684C221.319 12.3667 221.659 11.9047 221.902 11.298C222.145 10.6913 222.266 9.95867 222.266 9.1C222.266 8.24133 222.145 7.50867 221.902 6.902C221.659 6.29533 221.319 5.83333 220.88 5.516C220.451 5.19867 219.951 5.04 219.382 5.04C218.813 5.04 218.309 5.19867 217.87 5.516C217.441 5.83333 217.105 6.29533 216.862 6.902C216.619 7.50867 216.498 8.24133 216.498 9.1C216.498 9.95867 216.619 10.6913 216.862 11.298C217.105 11.9047 217.441 12.3667 217.87 12.684C218.309 13.0013 218.813 13.16 219.382 13.16ZM224.967 9.772H228.635V10.64H224.967V9.772ZM234.216 14.084C233.46 14.084 232.783 13.8833 232.186 13.482C231.598 13.0807 231.136 12.5067 230.8 11.76C230.473 11.004 230.31 10.1173 230.31 9.1C230.31 8.08267 230.473 7.20067 230.8 6.454C231.136 5.698 231.598 5.11933 232.186 4.718C232.783 4.31667 233.46 4.116 234.216 4.116C234.972 4.116 235.644 4.31667 236.232 4.718C236.829 5.11933 237.296 5.698 237.632 6.454C237.968 7.20067 238.136 8.08267 238.136 9.1C238.136 10.1173 237.968 11.004 237.632 11.76C237.296 12.5067 236.829 13.0807 236.232 13.482C235.644 13.8833 234.972 14.084 234.216 14.084ZM234.216 13.16C234.785 13.16 235.285 13.0013 235.714 12.684C236.153 12.3667 236.493 11.9047 236.736 11.298C236.979 10.6913 237.1 9.95867 237.1 9.1C237.1 8.24133 236.979 7.50867 236.736 6.902C236.493 6.29533 236.153 5.83333 235.714 5.516C235.285 5.19867 234.785 5.04 234.216 5.04C233.647 5.04 233.143 5.19867 232.704 5.516C232.275 5.83333 231.939 6.29533 231.696 6.902C231.453 7.50867 231.332 8.24133 231.332 9.1C231.332 9.95867 231.453 10.6913 231.696 11.298C231.939 11.9047 232.275 12.3667 232.704 12.684C233.143 13.0013 233.647 13.16 234.216 13.16ZM243.486 14.084C242.73 14.084 242.053 13.8833 241.456 13.482C240.868 13.0807 240.406 12.5067 240.07 11.76C239.743 11.004 239.58 10.1173 239.58 9.1C239.58 8.08267 239.743 7.20067 240.07 6.454C240.406 5.698 240.868 5.11933 241.456 4.718C242.053 4.31667 242.73 4.116 243.486 4.116C244.242 4.116 244.914 4.31667 245.502 4.718C246.099 5.11933 246.566 5.698 246.902 6.454C247.238 7.20067 247.406 8.08267 247.406 9.1C247.406 10.1173 247.238 11.004 246.902 11.76C246.566 12.5067 246.099 13.0807 245.502 13.482C244.914 13.8833 244.242 14.084 243.486 14.084ZM243.486 13.16C244.055 13.16 244.554 13.0013 244.984 12.684C245.422 12.3667 245.763 11.9047 246.006 11.298C246.248 10.6913 246.37 9.95867 246.37 9.1C246.37 8.24133 246.248 7.50867 246.006 6.902C245.763 6.29533 245.422 5.83333 244.984 5.516C244.554 5.19867 244.055 5.04 243.486 5.04C242.916 5.04 242.412 5.19867 241.974 5.516C241.544 5.83333 241.208 6.29533 240.966 6.902C240.723 7.50867 240.602 8.24133 240.602 9.1C240.602 9.95867 240.723 10.6913 240.966 11.298C241.208 11.9047 241.544 12.3667 241.974 12.684C242.412 13.0013 242.916 13.16 243.486 13.16Z" fill="#B3B3B3"/>
</svg>
