<svg width="126" height="19" viewBox="0 0 126 19" fill="none" xmlns="http://www.w3.org/2000/svg">
    <path d="M10.032 3.8V15H8.448V10.568C7.264 11.0267 6.17067 11.256 5.168 11.256C3.80267 11.256 2.74133 10.9253 1.984 10.264C1.23733 9.60267 0.864 8.65867 0.864 7.432V3.8H2.432V7.256C2.432 8.088 2.68267 8.728 3.184 9.176C3.696 9.624 4.416 9.848 5.344 9.848C6.37867 9.848 7.41333 9.61333 8.448 9.144V3.8H10.032ZM13.2693 6.52H14.8053V12.696L20.0052 6.52H21.3973V15H19.8612V8.824L14.6773 15H13.2693V6.52ZM30.6986 7.864H27.5946V15H26.0586V7.864H22.9546V6.52H30.6986V7.864ZM35.2933 6.44C36.4666 6.44 37.3626 6.728 37.9813 7.304C38.6106 7.88 38.9253 8.73867 38.9253 9.88V15H37.4693V13.88C37.2133 14.2747 36.8453 14.5787 36.3653 14.792C35.8959 14.9947 35.3359 15.096 34.6853 15.096C33.7359 15.096 32.9733 14.8667 32.3973 14.408C31.8319 13.9493 31.5493 13.3467 31.5493 12.6C31.5493 11.8533 31.8213 11.256 32.3653 10.808C32.9093 10.3493 33.7733 10.12 34.9573 10.12H37.3893V9.816C37.3893 9.15467 37.1973 8.648 36.8133 8.296C36.4293 7.944 35.8639 7.768 35.1173 7.768C34.6159 7.768 34.1253 7.85333 33.6453 8.024C33.1653 8.184 32.7599 8.40267 32.4293 8.68L31.7893 7.528C32.2266 7.176 32.7493 6.90933 33.3573 6.728C33.9653 6.536 34.6106 6.44 35.2933 6.44ZM34.9413 13.912C35.5279 13.912 36.0346 13.784 36.4613 13.528C36.8879 13.2613 37.1973 12.888 37.3893 12.408V11.224H35.0213C33.7199 11.224 33.0693 11.6613 33.0693 12.536C33.0693 12.9627 33.2346 13.2987 33.5653 13.544C33.8959 13.7893 34.3546 13.912 34.9413 13.912ZM48.0111 7.864H44.9071V15H43.3711V7.864H40.2671V6.52H48.0111V7.864ZM53.5018 9.4C54.5791 9.41067 55.4004 9.656 55.9658 10.136C56.5311 10.616 56.8138 11.2933 56.8138 12.168C56.8138 13.0853 56.5044 13.7947 55.8858 14.296C55.2778 14.7867 54.4031 15.0267 53.2618 15.016L49.5818 15V6.52H51.1178V9.384L53.5018 9.4ZM53.1338 13.848C53.8271 13.8587 54.3498 13.72 54.7018 13.432C55.0644 13.144 55.2458 12.7173 55.2458 12.152C55.2458 11.5973 55.0698 11.192 54.7178 10.936C54.3764 10.68 53.8484 10.5467 53.1338 10.536L51.1178 10.504V13.832L53.1338 13.848ZM70.7458 10.808C70.7458 10.9253 70.7351 11.08 70.7138 11.272H63.8338C63.9298 12.0187 64.2551 12.6213 64.8098 13.08C65.3751 13.528 66.0738 13.752 66.9058 13.752C67.9191 13.752 68.7351 13.4107 69.3538 12.728L70.2018 13.72C69.8178 14.168 69.3378 14.5093 68.7618 14.744C68.1964 14.9787 67.5618 15.096 66.8578 15.096C65.9618 15.096 65.1671 14.9147 64.4738 14.552C63.7804 14.1787 63.2418 13.6613 62.8578 13C62.4844 12.3387 62.2978 11.592 62.2978 10.76C62.2978 9.93867 62.4791 9.19733 62.8418 8.536C63.2151 7.87467 63.7218 7.36267 64.3618 7C65.0124 6.62667 65.7431 6.44 66.5538 6.44C67.3644 6.44 68.0844 6.62667 68.7138 7C69.3538 7.36267 69.8498 7.87467 70.2018 8.536C70.5644 9.19733 70.7458 9.95467 70.7458 10.808ZM66.5538 7.736C65.8178 7.736 65.1991 7.96 64.6978 8.408C64.2071 8.856 63.9191 9.44267 63.8338 10.168H69.2738C69.1884 9.45333 68.8951 8.872 68.3938 8.424C67.9031 7.96533 67.2898 7.736 66.5538 7.736ZM85.2086 6.52V15H73.1286V6.52H74.6646V13.656H78.4086V6.52H79.9446V13.656H83.6726V6.52H85.2086ZM86.4726 13.656V16.808H85.0326V15H83.6086V13.656H86.4726ZM95.8551 10.808C95.8551 10.9253 95.8445 11.08 95.8231 11.272H88.9431C89.0391 12.0187 89.3645 12.6213 89.9191 13.08C90.4845 13.528 91.1831 13.752 92.0151 13.752C93.0285 13.752 93.8445 13.4107 94.4631 12.728L95.3111 13.72C94.9271 14.168 94.4471 14.5093 93.8711 14.744C93.3058 14.9787 92.6711 15.096 91.9671 15.096C91.0711 15.096 90.2765 14.9147 89.5831 14.552C88.8898 14.1787 88.3511 13.6613 87.9671 13C87.5938 12.3387 87.4071 11.592 87.4071 10.76C87.4071 9.93867 87.5885 9.19733 87.9511 8.536C88.3245 7.87467 88.8311 7.36267 89.4711 7C90.1218 6.62667 90.8525 6.44 91.6631 6.44C92.4738 6.44 93.1938 6.62667 93.8231 7C94.4631 7.36267 94.9591 7.87467 95.3111 8.536C95.6738 9.19733 95.8551 9.95467 95.8551 10.808ZM91.6631 7.736C90.9271 7.736 90.3085 7.96 89.8071 8.408C89.3165 8.856 89.0285 9.44267 88.9431 10.168H94.3831C94.2978 9.45333 94.0045 8.872 93.5031 8.424C93.0125 7.96533 92.3991 7.736 91.6631 7.736Z" fill="#5286EC"/>
    <path fill-rule="evenodd" clip-rule="evenodd" d="M110.956 13.7841L106.226 9.25809C106.155 9.19266 106.098 9.11241 106.059 9.02259C106.02 8.93278 106 8.83546 106 8.73701C106 8.63857 106.02 8.54124 106.059 8.45143C106.098 8.36161 106.155 8.28136 106.226 8.21593C106.376 8.07686 106.571 8 106.773 8C106.975 8 107.17 8.07686 107.32 8.21593L111.5 12.2209L115.686 8.21593C115.835 8.07691 116.029 8.00002 116.23 8.00002C116.431 8.00002 116.625 8.07691 116.774 8.21593C116.845 8.28141 116.902 8.36172 116.941 8.45158C116.98 8.54144 117 8.63882 117 8.73731C117 8.8358 116.98 8.93318 116.941 9.02304C116.902 9.1129 116.845 9.19321 116.774 9.25869L112.05 13.7841C111.898 13.9235 111.703 14.0003 111.5 14C111.299 14.0013 111.105 13.9243 110.956 13.7841Z" fill="#C7C7C7"/>
</svg>
