<svg width="208" height="20" viewBox="0 0 208 20" fill="none" xmlns="http://www.w3.org/2000/svg">
    <path d="M33.104 4.1V16H31.438V5.579H24.536V16H22.853V4.1H33.104ZM40.4019 16.102C39.5066 16.102 38.7019 15.9037 37.9879 15.507C37.2739 15.1103 36.7129 14.5663 36.3049 13.875C35.9082 13.1723 35.7099 12.379 35.7099 11.495C35.7099 10.611 35.9082 9.82333 36.3049 9.132C36.7129 8.42933 37.2739 7.88533 37.9879 7.5C38.7019 7.10333 39.5066 6.905 40.4019 6.905C41.2972 6.905 42.0962 7.10333 42.7989 7.5C43.5129 7.88533 44.0682 8.42933 44.4649 9.132C44.8729 9.82333 45.0769 10.611 45.0769 11.495C45.0769 12.379 44.8729 13.1723 44.4649 13.875C44.0682 14.5663 43.5129 15.1103 42.7989 15.507C42.0962 15.9037 41.2972 16.102 40.4019 16.102ZM40.4019 14.674C40.9799 14.674 41.4956 14.5437 41.9489 14.283C42.4136 14.011 42.7762 13.637 43.0369 13.161C43.2976 12.6737 43.4279 12.1183 43.4279 11.495C43.4279 10.8717 43.2976 10.322 43.0369 9.846C42.7762 9.35867 42.4136 8.98467 41.9489 8.724C41.4956 8.46333 40.9799 8.333 40.4019 8.333C39.8239 8.333 39.3026 8.46333 38.8379 8.724C38.3846 8.98467 38.0219 9.35867 37.7499 9.846C37.4892 10.322 37.3589 10.8717 37.3589 11.495C37.3589 12.1183 37.4892 12.6737 37.7499 13.161C38.0219 13.637 38.3846 14.011 38.8379 14.283C39.3026 14.5437 39.8239 14.674 40.4019 14.674ZM50.9355 12.192H49.0655V16H47.4335V6.99H49.0655V10.798H50.9695L53.8935 6.99H55.6445L52.2275 11.325L55.8825 16H53.9615L50.9355 12.192ZM60.6407 6.905C61.8873 6.905 62.8393 7.211 63.4967 7.823C64.1653 8.435 64.4997 9.34733 64.4997 10.56V16H62.9527V14.81C62.6807 15.2293 62.2897 15.5523 61.7797 15.779C61.281 15.9943 60.686 16.102 59.9947 16.102C58.986 16.102 58.1757 15.8583 57.5637 15.371C56.963 14.8837 56.6627 14.2433 56.6627 13.45C56.6627 12.6567 56.9517 12.022 57.5297 11.546C58.1077 11.0587 59.0257 10.815 60.2837 10.815H62.8677V10.492C62.8677 9.78933 62.6637 9.251 62.2557 8.877C61.8477 8.503 61.247 8.316 60.4537 8.316C59.921 8.316 59.3997 8.40667 58.8897 8.588C58.3797 8.758 57.949 8.99033 57.5977 9.285L56.9177 8.061C57.3823 7.687 57.9377 7.40367 58.5837 7.211C59.2297 7.007 59.9153 6.905 60.6407 6.905ZM60.2667 14.844C60.89 14.844 61.4283 14.708 61.8817 14.436C62.335 14.1527 62.6637 13.756 62.8677 13.246V11.988H60.3517C58.969 11.988 58.2777 12.4527 58.2777 13.382C58.2777 13.8353 58.4533 14.1923 58.8047 14.453C59.156 14.7137 59.6433 14.844 60.2667 14.844ZM72.168 11.308C72.7687 11.4667 73.2333 11.7217 73.562 12.073C73.8907 12.4243 74.055 12.8607 74.055 13.382C74.055 13.9147 73.8737 14.3907 73.511 14.81C73.1483 15.218 72.644 15.541 71.998 15.779C71.3633 16.0057 70.6493 16.119 69.856 16.119C69.1873 16.119 68.53 16.034 67.884 15.864C67.2493 15.6827 66.6827 15.4277 66.184 15.099L66.677 13.858C67.1077 14.13 67.6007 14.3453 68.156 14.504C68.7113 14.6513 69.2723 14.725 69.839 14.725C70.6097 14.725 71.2217 14.5947 71.675 14.334C72.1397 14.062 72.372 13.6993 72.372 13.246C72.372 12.8267 72.185 12.5037 71.811 12.277C71.4483 12.0503 70.9327 11.937 70.264 11.937H68.615V10.764H70.145C70.757 10.764 71.2387 10.6563 71.59 10.441C71.9413 10.2257 72.117 9.931 72.117 9.557C72.117 9.149 71.9073 8.83167 71.488 8.605C71.08 8.37833 70.5247 8.265 69.822 8.265C68.9267 8.265 67.9803 8.49733 66.983 8.962L66.541 7.704C67.6403 7.14867 68.7907 6.871 69.992 6.871C70.7173 6.871 71.369 6.973 71.947 7.177C72.525 7.381 72.9783 7.67 73.307 8.044C73.6357 8.418 73.8 8.843 73.8 9.319C73.8 9.761 73.6527 10.1577 73.358 10.509C73.0633 10.8603 72.6667 11.1267 72.168 11.308ZM79.7491 6.905C80.9957 6.905 81.9477 7.211 82.6051 7.823C83.2737 8.435 83.6081 9.34733 83.6081 10.56V16H82.0611V14.81C81.7891 15.2293 81.3981 15.5523 80.8881 15.779C80.3894 15.9943 79.7944 16.102 79.1031 16.102C78.0944 16.102 77.2841 15.8583 76.6721 15.371C76.0714 14.8837 75.7711 14.2433 75.7711 13.45C75.7711 12.6567 76.0601 12.022 76.6381 11.546C77.2161 11.0587 78.1341 10.815 79.3921 10.815H81.9761V10.492C81.9761 9.78933 81.7721 9.251 81.3641 8.877C80.9561 8.503 80.3554 8.316 79.5621 8.316C79.0294 8.316 78.5081 8.40667 77.9981 8.588C77.4881 8.758 77.0574 8.99033 76.7061 9.285L76.0261 8.061C76.4907 7.687 77.0461 7.40367 77.6921 7.211C78.3381 7.007 79.0237 6.905 79.7491 6.905ZM79.3751 14.844C79.9984 14.844 80.5367 14.708 80.9901 14.436C81.4434 14.1527 81.7721 13.756 81.9761 13.246V11.988H79.4601C78.0774 11.988 77.3861 12.4527 77.3861 13.382C77.3861 13.8353 77.5617 14.1923 77.9131 14.453C78.2644 14.7137 78.7517 14.844 79.3751 14.844ZM93.2618 8.418H89.9638V16H88.3318V8.418H85.0338V6.99H93.2618V8.418ZM99.0956 10.05C100.24 10.0613 101.113 10.322 101.714 10.832C102.314 11.342 102.615 12.0617 102.615 12.991C102.615 13.9657 102.286 14.7193 101.629 15.252C100.983 15.7733 100.053 16.0283 98.8406 16.017L94.9306 16V6.99H96.5626V10.033L99.0956 10.05ZM98.7046 14.776C99.4413 14.7873 99.9966 14.64 100.371 14.334C100.756 14.028 100.949 13.5747 100.949 12.974C100.949 12.3847 100.762 11.954 100.388 11.682C100.025 11.41 99.4639 11.2683 98.7046 11.257L96.5626 11.223V14.759L98.7046 14.776ZM115.411 11.325C116.579 11.6197 117.162 12.3507 117.162 13.518C117.162 14.3113 116.862 14.9233 116.261 15.354C115.672 15.7847 114.788 16 113.609 16H109.274V6.99H113.456C114.522 6.99 115.355 7.194 115.955 7.602C116.556 7.99867 116.856 8.56533 116.856 9.302C116.856 9.778 116.726 10.1917 116.465 10.543C116.216 10.883 115.865 11.1437 115.411 11.325ZM110.872 10.866H113.32C113.944 10.866 114.414 10.7527 114.731 10.526C115.06 10.2993 115.224 9.97067 115.224 9.54C115.224 8.67867 114.59 8.248 113.32 8.248H110.872V10.866ZM113.49 14.742C114.17 14.742 114.68 14.6343 115.02 14.419C115.36 14.2037 115.53 13.8693 115.53 13.416C115.53 12.9513 115.372 12.6057 115.054 12.379C114.748 12.1523 114.261 12.039 113.592 12.039H110.872V14.742H113.49ZM123.644 16.102C122.726 16.102 121.904 15.9037 121.179 15.507C120.465 15.1103 119.904 14.5663 119.496 13.875C119.088 13.1723 118.884 12.379 118.884 11.495C118.884 10.611 119.088 9.82333 119.496 9.132C119.904 8.42933 120.465 7.88533 121.179 7.5C121.904 7.10333 122.726 6.905 123.644 6.905C124.46 6.905 125.185 7.06933 125.82 7.398C126.466 7.72667 126.964 8.20267 127.316 8.826L126.075 9.625C125.791 9.19433 125.44 8.87133 125.021 8.656C124.601 8.44067 124.137 8.333 123.627 8.333C123.037 8.333 122.505 8.46333 122.029 8.724C121.564 8.98467 121.196 9.35867 120.924 9.846C120.663 10.322 120.533 10.8717 120.533 11.495C120.533 12.1297 120.663 12.6907 120.924 13.178C121.196 13.654 121.564 14.0223 122.029 14.283C122.505 14.5437 123.037 14.674 123.627 14.674C124.137 14.674 124.601 14.5663 125.021 14.351C125.44 14.1357 125.791 13.8127 126.075 13.382L127.316 14.164C126.964 14.7873 126.466 15.269 125.82 15.609C125.185 15.9377 124.46 16.102 123.644 16.102ZM137.439 11.546C137.439 11.6707 137.428 11.835 137.405 12.039H130.095C130.197 12.8323 130.543 13.4727 131.132 13.96C131.733 14.436 132.475 14.674 133.359 14.674C134.436 14.674 135.303 14.3113 135.96 13.586L136.861 14.64C136.453 15.116 135.943 15.4787 135.331 15.728C134.73 15.9773 134.056 16.102 133.308 16.102C132.356 16.102 131.512 15.9093 130.775 15.524C130.038 15.1273 129.466 14.5777 129.058 13.875C128.661 13.1723 128.463 12.379 128.463 11.495C128.463 10.6223 128.656 9.83467 129.041 9.132C129.438 8.42933 129.976 7.88533 130.656 7.5C131.347 7.10333 132.124 6.905 132.985 6.905C133.846 6.905 134.611 7.10333 135.28 7.5C135.96 7.88533 136.487 8.42933 136.861 9.132C137.246 9.83467 137.439 10.6393 137.439 11.546ZM132.985 8.282C132.203 8.282 131.546 8.52 131.013 8.996C130.492 9.472 130.186 10.0953 130.095 10.866H135.875C135.784 10.1067 135.473 9.489 134.94 9.013C134.419 8.52567 133.767 8.282 132.985 8.282ZM155.909 11.478C155.909 12.872 155.444 13.9713 154.515 14.776C153.586 15.5807 152.277 16.0283 150.588 16.119V19.298H148.99V16.119C147.301 16.0283 145.992 15.5863 145.063 14.793C144.145 13.9883 143.686 12.8833 143.686 11.478C143.686 10.084 144.145 8.996 145.063 8.214C145.981 7.432 147.29 6.99567 148.99 6.905V3.386H150.588V6.905C152.277 6.99567 153.586 7.43767 154.515 8.231C155.444 9.013 155.909 10.0953 155.909 11.478ZM145.301 11.478C145.301 12.4413 145.607 13.195 146.219 13.739C146.842 14.283 147.766 14.5947 148.99 14.674V8.35C147.755 8.42933 146.831 8.73533 146.219 9.268C145.607 9.80067 145.301 10.5373 145.301 11.478ZM150.588 14.691C153.059 14.4983 154.294 13.4273 154.294 11.478C154.294 10.526 153.982 9.78933 153.359 9.268C152.736 8.73533 151.812 8.42933 150.588 8.35V14.691ZM162.075 16.102C161.179 16.102 160.375 15.9037 159.661 15.507C158.947 15.1103 158.386 14.5663 157.978 13.875C157.581 13.1723 157.383 12.379 157.383 11.495C157.383 10.611 157.581 9.82333 157.978 9.132C158.386 8.42933 158.947 7.88533 159.661 7.5C160.375 7.10333 161.179 6.905 162.075 6.905C162.97 6.905 163.769 7.10333 164.472 7.5C165.186 7.88533 165.741 8.42933 166.138 9.132C166.546 9.82333 166.75 10.611 166.75 11.495C166.75 12.379 166.546 13.1723 166.138 13.875C165.741 14.5663 165.186 15.1103 164.472 15.507C163.769 15.9037 162.97 16.102 162.075 16.102ZM162.075 14.674C162.653 14.674 163.168 14.5437 163.622 14.283C164.086 14.011 164.449 13.637 164.71 13.161C164.97 12.6737 165.101 12.1183 165.101 11.495C165.101 10.8717 164.97 10.322 164.71 9.846C164.449 9.35867 164.086 8.98467 163.622 8.724C163.168 8.46333 162.653 8.333 162.075 8.333C161.497 8.333 160.975 8.46333 160.511 8.724C160.057 8.98467 159.695 9.35867 159.423 9.846C159.162 10.322 159.032 10.8717 159.032 11.495C159.032 12.1183 159.162 12.6737 159.423 13.161C159.695 13.637 160.057 14.011 160.511 14.283C160.975 14.5437 161.497 14.674 162.075 14.674ZM175.489 8.418H172.191V16H170.559V8.418H167.261V6.99H175.489V8.418ZM180.619 16.102C179.723 16.102 178.919 15.9037 178.205 15.507C177.491 15.1103 176.93 14.5663 176.522 13.875C176.125 13.1723 175.927 12.379 175.927 11.495C175.927 10.611 176.125 9.82333 176.522 9.132C176.93 8.42933 177.491 7.88533 178.205 7.5C178.919 7.10333 179.723 6.905 180.619 6.905C181.514 6.905 182.313 7.10333 183.016 7.5C183.73 7.88533 184.285 8.42933 184.682 9.132C185.09 9.82333 185.294 10.611 185.294 11.495C185.294 12.379 185.09 13.1723 184.682 13.875C184.285 14.5663 183.73 15.1103 183.016 15.507C182.313 15.9037 181.514 16.102 180.619 16.102ZM180.619 14.674C181.197 14.674 181.712 14.5437 182.166 14.283C182.63 14.011 182.993 13.637 183.254 13.161C183.514 12.6737 183.645 12.1183 183.645 11.495C183.645 10.8717 183.514 10.322 183.254 9.846C182.993 9.35867 182.63 8.98467 182.166 8.724C181.712 8.46333 181.197 8.333 180.619 8.333C180.041 8.333 179.519 8.46333 179.055 8.724C178.601 8.98467 178.239 9.35867 177.967 9.846C177.706 10.322 177.576 10.8717 177.576 11.495C177.576 12.1183 177.706 12.6737 177.967 13.161C178.239 13.637 178.601 14.011 179.055 14.283C179.519 14.5437 180.041 14.674 180.619 14.674Z" fill="#5286EC"/>
    <path fill-rule="evenodd" clip-rule="evenodd" d="M201.956 14.7841L197.226 10.2581C197.155 10.1927 197.098 10.1124 197.059 10.0226C197.02 9.93278 197 9.83546 197 9.73701C197 9.63857 197.02 9.54124 197.059 9.45143C197.098 9.36161 197.155 9.28136 197.226 9.21593C197.376 9.07686 197.571 9 197.773 9C197.975 9 198.17 9.07686 198.32 9.21593L202.5 13.2209L206.686 9.21593C206.835 9.07691 207.029 9.00002 207.23 9.00002C207.431 9.00002 207.625 9.07691 207.774 9.21593C207.845 9.28141 207.902 9.36172 207.941 9.45158C207.98 9.54144 208 9.63882 208 9.73731C208 9.8358 207.98 9.93318 207.941 10.023C207.902 10.1129 207.845 10.1932 207.774 10.2587L203.05 14.7841C202.898 14.9235 202.703 15.0003 202.5 15C202.299 15.0013 202.105 14.9243 201.956 14.7841Z" fill="#C7C7C7"/>
    <path fill-rule="evenodd" clip-rule="evenodd" d="M4.9557 14.7841L0.225863 10.2581C0.154844 10.1927 0.0980035 10.1124 0.0590805 10.0226C0.0201575 9.93278 0 9.83546 0 9.73701C0 9.63857 0.0201575 9.54124 0.0590805 9.45143C0.0980035 9.36161 0.154844 9.28136 0.225863 9.21593C0.376464 9.07686 0.571367 9 0.773135 9C0.974903 9 1.16952 9.07686 1.32012 9.21593L5.50014 13.2209L9.68581 9.21593C9.8353 9.07691 10.0291 9.00002 10.23 9.00002C10.4309 9.00002 10.6247 9.07691 10.7741 9.21593C10.8452 9.28141 10.902 9.36172 10.9409 9.45158C10.9798 9.54144 11 9.63882 11 9.73731C11 9.8358 10.9798 9.93318 10.9409 10.023C10.902 10.1129 10.8452 10.1932 10.7741 10.2587L6.04996 14.7841C5.8984 14.9235 5.70283 15.0003 5.50014 15C5.29901 15.0013 5.10451 14.9243 4.9557 14.7841Z" fill="#C7C7C7"/>
</svg>
